<svg width="129" height="45" viewBox="0 0 129 45" fill="none" xmlns="http://www.w3.org/2000/svg">
<path d="M0 40.6582V9.7207H9.22644C11.3131 9.7207 12.9871 10.0371 14.2484 10.6699C15.5098 11.291 16.4207 12.1934 16.9813 13.377C17.5575 14.5605 17.8456 15.9902 17.8456 17.666L17.8689 31.623C17.8689 33.6504 17.5731 35.3379 16.9813 36.6855C16.4052 38.0215 15.4708 39.0176 14.1784 39.6738C12.8859 40.3301 11.1652 40.6582 9.01622 40.6582H0ZM6.25997 37.002H8.31548C9.04736 37.002 9.65467 36.8906 10.1374 36.668C10.6357 36.4453 11.0017 36.0527 11.2352 35.4902C11.4844 34.916 11.609 34.1074 11.609 33.0645L11.5856 17.7891C11.5856 16.207 11.3287 15.0703 10.8148 14.3789C10.3009 13.6875 9.39774 13.3418 8.10526 13.3418H6.25997V37.002Z" fill="white"/>
<path d="M23.5449 40.6582V9.7207H37.3262V13.7812H29.8049V22.7812H36.9525V26.7539H29.8049V36.5977H37.6065V40.6582H23.5449ZM26.7917 7.25977L28.9874 0H35.1773L30.4356 7.25977H26.7917Z" fill="white"/>
<path d="M42.2314 40.6582V9.7207H48.4914V36.6504H56.4098V40.6582H42.2314Z" fill="white"/>
<path d="M80.9358 41.0098C78.9425 41.0098 77.2841 40.6641 75.9605 39.9727C74.6369 39.2812 73.6403 38.2734 72.9707 36.9492C72.3166 35.6133 71.9896 34.002 71.9896 32.1152V18.6328C71.9896 17.2148 72.1453 15.9375 72.4568 14.8008C72.7682 13.6641 73.2743 12.6914 73.9751 11.8828C74.6758 11.0742 75.6101 10.4531 76.778 10.0195C77.9459 9.58594 79.3863 9.36914 81.0993 9.36914C82.6565 9.36914 83.9801 9.5625 85.0701 9.94922C86.1758 10.3242 87.0712 10.8691 87.7563 11.584C88.4571 12.2988 88.9632 13.166 89.2746 14.1855C89.6016 15.1934 89.7651 16.3301 89.7651 17.5957V21.8496H83.7154V17.8945C83.7154 16.3711 83.5441 15.252 83.2015 14.5371C82.8589 13.8105 82.1737 13.4473 81.146 13.4473C80.0092 13.4473 79.2462 13.8398 78.8569 14.625C78.4832 15.3984 78.2963 16.4824 78.2963 17.877V32.3262C78.2963 33.4043 78.3742 34.2891 78.5299 34.9805C78.7012 35.6602 78.9815 36.1641 79.3708 36.4922C79.7601 36.8086 80.3051 36.9668 81.0058 36.9668C82.0647 36.9668 82.7811 36.5918 83.1548 35.8418C83.5285 35.0918 83.7154 33.9023 83.7154 32.2734V27.8438H89.8586V32.2207C89.8586 34.1777 89.5549 35.8125 88.9476 37.125C88.3403 38.4258 87.3748 39.3984 86.0512 40.043C84.7431 40.6875 83.038 41.0098 80.9358 41.0098Z" fill="white"/>
<path d="M92.7316 40.6582L98.5945 9.7207H106.863L113.1 40.6582H107.26L106.279 35.1387H99.6456L98.758 40.6582H92.7316ZM100.253 31.3594H105.625L102.869 15.8203H102.776L100.253 31.3594Z" fill="white"/>
<path d="M117.818 40.6582V13.7988H113.006V9.7207H128.68V13.7988H124.055V40.6582H117.818Z" fill="white"/>
<path d="M60.6992 5.07583L62.2914 7.6582H66.8004L68.6721 5.07583L64.6857 3.6582L60.6992 5.07583Z" fill="white"/>
<path d="M62.7712 9.6582L60.4336 42.0411L64.4558 44.6582L68.0078 42.0411L66.3232 9.6582H62.7712Z" fill="white"/>
</svg>
